<?xml version="1.0" encoding="UTF-8"?>
<svg xmlns="http://www.w3.org/2000/svg" xmlns:xlink="http://www.w3.org/1999/xlink"
     viewBox="0 0 512 512">
    <defs>
        <style>
            .cls-1 {
            clip-path: url(#clippath);
            }

            .cls-5 {
            clip-path: url(#clippath-1);
            }
        </style>
        <clipPath id="clippath">
            <path d="m256,454.03c-89.05,0-161.5-72.45-161.5-161.5v-73.86c0-89.05,72.45-161.5,161.5-161.5s161.5,72.45,161.5,161.5v73.86c0,89.05-72.45,161.5-161.5,161.5Zm0-378.51c-78.93,0-143.15,64.22-143.15,143.15v73.86c0,78.93,64.22,143.15,143.15,143.15s143.15-64.21,143.15-143.15v-73.86c0-78.93-64.21-143.15-143.15-143.15Zm58.96,164.42h-100.39v-19.44c0-24.55,19.97-44.52,44.52-44.52,16.49,0,31.57,9.09,39.34,23.71,3.78,7.09,12.58,9.79,19.68,6.02,7.1-3.77,9.79-12.58,6.02-19.68-12.84-24.14-37.76-39.14-65.04-39.14-40.59,0-73.62,33.02-73.62,73.62v76.34c0,1.32.19,2.6.52,3.82,3.82,34.7,33.22,61.69,68.94,61.69,39.16,0,70.9-31.74,70.9-70.9v-40.65c0-6-4.87-10.87-10.87-10.87Zm-48.03,68.24c-.01,5.25-4.4,9.5-9.79,9.49-5.39-.01-9.76-4.28-9.74-9.54l.06-23.78c.01-5.25,4.4-11.98,9.8-11.97,5.39.01,9.75,6.77,9.74,12.02l-.06,23.78Zm81.61,57.41c3.55-4.49,6.8-9.29,9.67-14.24,2.78-4.82,1.13-10.98-3.68-13.76-4.82-2.79-10.98-1.13-13.76,3.68-2.38,4.12-5.08,8.1-8.03,11.83-18.72,23.68-46.7,37.26-76.74,37.26-52.38,0-96.25-42.57-97.79-94.9-.16-5.56-4.78-9.86-10.37-9.77-5.56.16-9.94,4.8-9.77,10.37.91,30.73,13.59,59.5,35.71,81.02,22.17,21.56,51.37,33.44,82.22,33.44,36.24,0,69.97-16.37,92.54-44.91Zm25.43-73.06v-73.86c0-63.56-51.68-116.48-115.21-117.95-.92-.02-1.84-.03-2.77-.03-5.56,0-10.07,4.51-10.07,10.07s4.51,10.07,10.07,10.07c.77,0,1.54,0,2.3.03,52.68,1.22,95.53,45.1,95.53,97.81v73.86c0,5.56,4.51,10.07,10.07,10.07s10.07-4.51,10.07-10.07Zm-215.84-48.61v-21.11l.02-4.14c0-38,22.37-72.88,56.99-88.86,5.05-2.33,7.25-8.32,4.92-13.37-2.33-5.05-8.31-7.25-13.37-4.92-41.73,19.27-68.69,61.33-68.69,107.09l-.02,25.31c0,5.56,4.51,10.07,10.07,10.07s10.07-4.51,10.07-10.07Z"/>
        </clipPath>
    </defs>
    <g class="cls-1">
        <g class="cls-5">
            <rect x="0" y="0" width="695" height="849" fill="white"/>
        </g>
    </g>
</svg>